<svg width="754" height="418" viewBox="0 0 754 418" fill="none" xmlns="http://www.w3.org/2000/svg">
<path d="M310.736 242.322C303.919 238.714 298.616 233.643 294.813 227.108C291.009 220.573 289.107 212.985 289.107 204.342C289.107 195.7 291.009 188.119 294.813 181.577C298.616 175.042 303.919 169.971 310.736 166.363C317.546 162.755 325.306 160.955 334.025 160.955C345.113 160.955 355.017 164.007 363.728 170.11L354.937 183.421C348.361 178.825 341.354 176.527 333.908 176.527C328.517 176.527 323.69 177.676 319.411 179.974C315.132 182.272 311.789 185.521 309.368 189.721C306.954 193.922 305.748 198.795 305.748 204.342C305.748 209.889 306.954 214.763 309.368 218.963C311.782 223.164 315.132 226.413 319.411 228.71C323.69 231.008 328.517 232.157 333.908 232.157C341.354 232.157 348.361 229.859 354.937 225.264L363.728 238.575C355.017 244.678 345.113 247.729 334.025 247.729C325.313 247.729 317.546 245.929 310.736 242.322Z" fill="white"/>
<path d="M394.858 231.564H429.55V245.951H379.645V162.741H394.851V231.564H394.858Z" fill="white"/>
<path d="M502.197 166.421C508.853 170.066 514.075 175.195 517.879 181.818C521.682 188.433 523.584 195.949 523.584 204.342C523.584 212.736 521.682 220.251 517.879 226.866C514.075 233.482 508.845 238.619 502.197 242.263C495.54 245.907 488.138 247.729 479.976 247.729C471.813 247.729 464.432 245.907 457.813 242.263C451.201 238.619 445.993 233.489 442.19 226.866C438.386 220.251 436.484 212.743 436.484 204.342C436.484 195.941 438.386 188.433 442.19 181.818C445.993 175.203 451.201 170.073 457.813 166.421C464.425 162.777 471.813 160.955 479.976 160.955C488.138 160.955 495.54 162.777 502.197 166.421ZM466.137 180.032C462.055 182.374 458.866 185.66 456.57 189.897C454.273 194.134 453.125 198.949 453.125 204.342C453.125 209.735 454.273 214.543 456.57 218.788C458.866 223.025 462.055 226.318 466.137 228.652C470.218 230.994 474.826 232.157 479.976 232.157C485.125 232.157 489.74 230.986 493.814 228.652C497.896 226.318 501.077 223.047 503.381 218.846C505.678 214.646 506.826 209.816 506.826 204.342C506.826 198.868 505.678 194.039 503.381 189.838C501.085 185.638 497.896 182.367 493.814 180.032C489.733 177.698 485.118 176.527 479.976 176.527C474.834 176.527 470.211 177.698 466.137 180.032Z" fill="white"/>
<path d="M607.347 213.138C607.347 220.112 606.002 226.193 603.31 231.389C600.618 236.577 596.698 240.58 591.548 243.397C586.399 246.207 580.262 247.62 573.131 247.62C562.276 247.62 553.843 244.532 547.823 238.348C541.804 232.164 538.79 223.764 538.79 213.146V162.748H554.83V212.202C554.83 218.224 556.491 223.017 559.819 226.581C563.147 230.145 567.579 231.93 573.124 231.93C578.668 231.93 583.086 230.145 586.37 226.581C589.654 223.017 591.3 218.224 591.3 212.202V162.748H607.34V213.146L607.347 213.138Z" fill="white"/>
<path d="M674.164 167.79C680.696 171.156 685.808 175.971 689.495 182.235C693.181 188.499 695.017 195.868 695.017 204.342C695.017 212.816 693.174 220.193 689.495 226.449C685.808 232.713 680.703 237.521 674.164 240.895C667.632 244.261 660.164 245.944 651.767 245.944H625.15V162.733H651.767C660.164 162.733 667.632 164.416 674.164 167.782V167.79ZM640.357 176.761V231.916H652.477C657.546 231.916 662.044 230.847 665.964 228.703C669.885 226.566 672.972 223.434 675.232 219.314C677.492 215.195 678.618 210.204 678.618 204.335C678.618 198.466 677.492 193.483 675.232 189.355C672.972 185.235 669.885 182.103 665.964 179.967C662.044 177.83 657.546 176.754 652.477 176.754H640.357V176.761Z" fill="white"/>
<path d="M340.52 90.8285C344.243 94.5533 346.101 100.298 346.101 108.062V141.943H331.486V111.509C331.486 103.027 327.727 98.7903 320.2 98.7903C316.236 98.7903 313.113 100.1 310.816 102.713C308.519 105.325 307.371 109.452 307.371 115.072V141.936H292.874V87.0159H307.254V95.3363H307.488C309.39 92.0872 311.862 89.5918 314.912 87.8502C317.962 86.1085 321.466 85.2377 325.43 85.2377C331.764 85.2377 336.797 87.1038 340.52 90.8212V90.8285Z" fill="white"/>
<path d="M383.887 108.779H378.306V141.943H363.1V58.7327H393.754C399.218 58.7327 403.972 59.7864 408.01 61.8793C412.047 63.9795 415.156 66.9286 417.336 70.7338C419.515 74.5391 420.605 78.9371 420.605 83.9278C420.605 90.1114 418.879 95.3582 415.434 99.6757C411.989 103.993 407.212 106.789 401.12 108.055L425.718 141.936H406.591L383.894 108.772L383.887 108.779ZM378.306 95.3436H391.377C395.656 95.3436 398.881 94.3703 401.061 92.4311C403.241 90.4919 404.331 87.7331 404.331 84.1693C404.331 80.6055 403.241 77.9126 401.061 75.849C398.881 73.7927 395.656 72.7609 391.377 72.7609H378.306V95.3436Z" fill="white"/>
<path d="M454.733 72.995V93.441H486.338V107.469H454.733V141.943H439.526V58.7327H489.908V72.995H454.74H454.733Z" fill="white"/>
<path d="M122.157 245.988H237.132C242.025 245.988 245.997 242.014 245.997 237.119V67.5799C245.997 62.6843 242.025 58.7107 237.132 58.7107H67.6726C62.7793 58.7107 58.8076 62.6843 58.8076 67.5799V203.596C58.8076 207.906 60.8776 211.945 64.3738 214.463L114.345 243.463C116.247 244.554 119.356 245.98 122.157 245.98V245.988Z" fill="#00A2C6"/>
<path d="M210.909 159.052C210.909 167.717 206.206 175.276 199.214 179.33L169.393 162.104L164.105 159.052L140.633 145.485L140.531 145.434L133.714 141.49C133.611 141.431 133.509 141.373 133.399 141.314C127.635 138.087 125.2 137.026 123.832 136.565C123.788 136.55 123.744 136.535 123.7 136.528C123.7 136.265 123.722 135.994 123.737 135.731C124.746 120.414 137.48 108.311 153.045 108.311C168.61 108.311 181.608 120.67 182.376 136.206C184.029 135.833 185.741 135.643 187.503 135.643C200.435 135.643 210.909 146.122 210.909 159.052Z" fill="white"/>
<g opacity="0.5">
<path d="M199.214 179.33C195.93 181.225 192.148 182.352 188.103 182.455H117.293C104.369 182.455 93.8945 171.976 93.8945 159.052C93.8945 146.129 104.376 135.643 117.293 135.643C119.509 135.643 121.66 135.957 123.686 136.535C123.722 136.55 123.774 136.565 123.818 136.572C125.185 137.033 127.621 138.094 133.385 141.321C133.487 141.38 133.59 141.438 133.699 141.497L140.516 145.441L140.619 145.492L164.09 159.052L169.379 162.111L199.199 179.337L199.214 179.33Z" fill="white"/>
</g>
<path d="M390.674 358.638C409.463 358.638 424.693 343.4 424.693 324.603C424.693 305.806 409.463 290.568 390.674 290.568C371.886 290.568 356.655 305.806 356.655 324.603C356.655 343.4 371.886 358.638 390.674 358.638Z" fill="#141837"/>
<path fill-rule="evenodd" clip-rule="evenodd" d="M411.725 329.425L408.616 327.632L393.754 336.209C391.844 337.299 389.497 337.299 387.588 336.209L372.725 327.632L369.616 329.425C368.746 329.923 368.446 331.035 368.943 331.906C369.104 332.184 369.338 332.418 369.616 332.579L387.58 342.949C389.489 344.039 391.837 344.039 393.746 342.949L411.71 332.579C412.581 332.082 412.881 330.969 412.383 330.099C412.222 329.82 411.988 329.586 411.71 329.425H411.725Z" fill="#39C0CE"/>
<path fill-rule="evenodd" clip-rule="evenodd" d="M411.725 315.902L393.761 305.511C391.852 304.42 389.504 304.42 387.595 305.511L369.631 315.88C368.76 316.378 368.46 317.49 368.958 318.361C369.119 318.639 369.353 318.873 369.631 319.034L372.739 320.827L378.606 324.208L387.602 329.403C389.511 330.494 391.859 330.494 393.768 329.403L402.765 324.208L408.631 320.827L411.74 319.034C412.603 318.544 412.91 317.446 412.42 316.583C412.259 316.297 412.025 316.063 411.74 315.902H411.725Z" fill="#39C0CE"/>
<path fill-rule="evenodd" clip-rule="evenodd" d="M591.395 310.604C592.061 310.611 592.726 310.67 593.384 310.78V304.362C592.126 304.179 590.854 304.091 589.581 304.091C583.298 304.091 578.2 309.184 578.2 315.47V316.473H573.95V322.737H578.2V343.673H586.553V322.737H593.384V316.473H586.553V315.456C586.553 312.785 588.711 310.611 591.38 310.604C591.38 310.604 591.395 310.604 591.402 310.604H591.395Z" fill="white"/>
<path fill-rule="evenodd" clip-rule="evenodd" d="M691.17 322.737V316.473H684.338V308.489H675.985V316.473H671.735V322.737H675.985V332.704C675.985 338.99 681.076 344.09 687.359 344.09C688.631 344.09 689.904 343.995 691.162 343.819V337.402C690.504 337.519 689.838 337.577 689.173 337.577C686.503 337.577 684.331 335.419 684.323 332.748V322.73H691.155L691.17 322.737Z" fill="white"/>
<path d="M666.966 304.64H658.613V343.673H666.966V304.64Z" fill="white"/>
<path fill-rule="evenodd" clip-rule="evenodd" d="M644.226 316.473V333.106C643.817 335.755 641.535 337.709 638.858 337.709C636.495 337.709 634.586 335.792 634.586 333.435V316.48H626.313V334.555C626.313 339.824 630.585 344.098 635.859 344.105C638.982 344.105 641.988 342.897 644.256 340.746V343.68H652.652V316.48H644.226V316.473Z" fill="white"/>
<path fill-rule="evenodd" clip-rule="evenodd" d="M560.052 316.151C556.344 316.165 552.87 317.958 550.712 320.973C549.132 318.032 546.075 316.18 542.732 316.151C539.601 316.158 536.617 317.446 534.459 319.707V316.575H526.062V343.746H534.613V327.962C534.613 324.954 536.946 322.517 539.857 322.517C542.118 322.517 543.961 324.435 543.961 326.791V343.746H551.941V327.881C551.992 324.925 554.325 322.539 557.185 322.539C559.445 322.539 561.288 324.457 561.288 326.813V343.768H569.268V325.693C569.246 320.424 565.143 316.144 560.074 316.144L560.052 316.151Z" fill="white"/>
<path fill-rule="evenodd" clip-rule="evenodd" d="M521.016 328.708C521.016 321.581 515.238 315.807 508.121 315.807C500.997 315.807 495.226 321.588 495.226 328.708V331.196C495.226 338.309 501.019 344.098 508.472 344.098C512.597 344.098 516.971 343.227 520.548 340.79L518.31 335.243L517.761 335.565C515.296 337.08 512.458 337.885 509.562 337.877C506.095 337.877 503.279 335.075 503.271 331.599V331.584H520.965V328.701H521.016V328.708ZM513.358 327.289H503.242V326.74C503.242 323.952 505.502 321.69 508.289 321.69C511.076 321.69 513.336 323.952 513.336 326.74V327.289H513.358Z" fill="white"/>
<path fill-rule="evenodd" clip-rule="evenodd" d="M620.865 327.413V327.34C620.579 321.178 615.503 316.326 609.337 316.326H608.964C605.095 316.326 601.269 317.212 597.81 318.939L599.126 324.259C601.613 323.088 604.371 322.071 607.801 322.071C611.232 322.071 612.892 324.157 612.892 326.549V327.493H604.268C599.624 327.493 595.718 331.299 595.82 335.945C595.915 340.468 599.602 344.076 604.122 344.076C606.997 344.076 609.754 342.963 611.824 340.966L612.914 339.919V343.622H620.894L620.872 327.413H620.865ZM612.914 332.609C612.914 335.77 610.354 338.324 607.201 338.324C605.322 338.324 603.793 336.802 603.793 334.921C603.793 333.04 605.314 331.511 607.194 331.511H612.914V332.601V332.609Z" fill="white"/>
<path d="M481.307 343.768V322.861L473.129 338.075H467.014L458.837 323.059V343.768H450.265V304.735H457.872L470.123 327.786L482.375 304.735H489.879V343.768H481.307Z" fill="white"/>
<path fill-rule="evenodd" clip-rule="evenodd" d="M393.753 312.272C391.844 311.182 389.496 311.182 387.587 312.272L372.725 320.849L378.591 324.23L387.587 329.425C389.496 330.516 391.844 330.516 393.753 329.425L402.75 324.23L408.616 320.849L393.753 312.272Z" fill="#B0E6EB"/>
<path fill-rule="evenodd" clip-rule="evenodd" d="M387.595 319.056L378.599 324.252L387.595 329.447C389.504 330.538 391.852 330.538 393.761 329.447L402.758 324.252L393.761 319.056C391.86 317.936 389.497 317.936 387.595 319.056Z" fill="white"/>
<path d="M58.8809 318.515H63.5401V321.749H63.6352C64.3666 320.512 65.3467 319.546 66.5829 318.851C67.819 318.156 69.3111 317.805 71.0519 317.805C73.0195 317.805 74.8042 318.28 76.4207 319.232C78.0372 320.183 79.3318 321.537 80.2973 323.3C81.2628 325.057 81.7455 327.128 81.7455 329.506C81.7455 331.884 81.2628 333.955 80.2973 335.711C79.3318 337.468 78.0372 338.829 76.4207 339.78C74.8042 340.731 73.0122 341.207 71.0519 341.207C69.3111 341.207 67.819 340.856 66.5829 340.161C65.3467 339.465 64.3666 338.492 63.6352 337.263H63.5401V350.01H58.8809V318.522V318.515ZM74.9505 334.658C76.1866 333.34 76.8083 331.621 76.8083 329.499C76.8083 327.376 76.1866 325.657 74.9505 324.339C73.7144 323.022 72.0833 322.364 70.0499 322.364C68.0165 322.364 66.3927 323.022 65.1566 324.339C63.9204 325.657 63.2987 327.376 63.2987 329.499C63.2987 331.621 63.9131 333.34 65.1566 334.658C66.3927 335.975 68.0238 336.633 70.0499 336.633C72.0759 336.633 73.7071 335.975 74.9505 334.658Z" fill="white"/>
<path d="M103.981 319.319C105.803 320.337 107.236 321.727 108.282 323.505C109.328 325.283 109.847 327.281 109.847 329.499C109.847 331.716 109.328 333.714 108.282 335.492C107.236 337.27 105.803 338.66 103.981 339.678C102.16 340.695 100.105 341.2 97.8226 341.2C95.5406 341.2 93.4852 340.695 91.664 339.678C89.8427 338.66 88.4091 337.27 87.3631 335.492C86.3172 333.714 85.7979 331.716 85.7979 329.499C85.7979 327.281 86.3172 325.283 87.3631 323.505C88.4091 321.727 89.8427 320.337 91.664 319.319C93.4852 318.302 95.5406 317.797 97.8226 317.797C100.105 317.797 102.16 318.302 103.981 319.319ZM92.7099 324.318C91.3933 325.62 90.735 327.347 90.735 329.499C90.735 331.65 91.3933 333.384 92.7099 334.68C94.0265 335.982 95.7307 336.633 97.8226 336.633C99.9146 336.633 101.619 335.982 102.935 334.68C104.252 333.377 104.91 331.65 104.91 329.499C104.91 327.347 104.252 325.613 102.935 324.318C101.619 323.015 99.9146 322.364 97.8226 322.364C95.7307 322.364 94.0265 323.015 92.7099 324.318Z" fill="white"/>
<path d="M146.507 318.515L139.134 340.49H134.855L129.626 324.749L124.352 340.49H120.073L112.7 318.515H117.835L122.253 334.358L127.344 318.515H131.856L136.947 334.358L141.365 318.515H146.5H146.507Z" fill="white"/>
<path d="M168.304 320.959C170.161 323.066 171.083 325.913 171.083 329.499V330.26H154.063C154.158 332.191 154.816 333.757 156.037 334.943C157.259 336.128 158.817 336.729 160.719 336.729C162.306 336.729 163.622 336.355 164.69 335.609C165.751 334.862 166.68 333.955 167.47 332.872L170.754 335.967C168.216 339.458 164.902 341.2 160.821 341.2C158.51 341.2 156.484 340.717 154.757 339.751C153.031 338.785 151.7 337.424 150.764 335.66C149.827 333.897 149.359 331.862 149.359 329.55C149.359 327.237 149.813 325.327 150.713 323.535C151.612 321.742 152.914 320.337 154.611 319.327C156.308 318.31 158.298 317.805 160.58 317.805C163.878 317.805 166.453 318.858 168.304 320.966V320.959ZM156.301 323.315C155.255 324.142 154.589 325.327 154.304 326.886H166.043C165.948 325.364 165.385 324.186 164.354 323.344C163.322 322.503 161.969 322.086 160.287 322.086C158.605 322.086 157.339 322.495 156.293 323.322L156.301 323.315Z" fill="white"/>
<path d="M188.915 323.315H188.205C185.894 323.315 184.146 323.908 182.976 325.101C181.805 326.286 181.213 328.167 181.213 330.735V340.49H176.554V318.515H181.213V323.322H181.308C181.849 321.639 182.742 320.307 183.992 319.327C185.243 318.346 186.772 317.849 188.579 317.849H188.915V323.322V323.315Z" fill="white"/>
<path d="M210.946 320.959C212.804 323.066 213.726 325.913 213.726 329.499V330.26H196.705C196.8 332.191 197.458 333.757 198.68 334.943C199.901 336.128 201.459 336.729 203.361 336.729C204.948 336.729 206.265 336.355 207.333 335.609C208.393 334.862 209.322 333.955 210.112 332.872L213.396 335.967C210.858 339.458 207.545 341.2 203.464 341.2C201.152 341.2 199.126 340.717 197.4 339.751C195.674 338.785 194.343 337.424 193.406 335.66C192.47 333.897 192.002 331.862 192.002 329.55C192.002 327.237 192.455 325.327 193.355 323.535C194.255 321.742 195.557 320.337 197.254 319.327C198.951 318.31 200.94 317.805 203.222 317.805C206.521 317.805 209.096 318.858 210.946 320.966V320.959ZM198.943 323.315C197.897 324.142 197.232 325.327 196.946 326.886H208.686C208.591 325.364 208.028 324.186 206.996 323.344C205.965 322.503 204.612 322.086 202.93 322.086C201.247 322.086 199.982 322.495 198.936 323.322L198.943 323.315Z" fill="white"/>
<path d="M223.095 339.773C221.479 338.821 220.184 337.468 219.219 335.704C218.253 333.94 217.771 331.877 217.771 329.499C217.771 327.12 218.253 325.049 219.219 323.293C220.184 321.529 221.479 320.176 223.095 319.224C224.712 318.273 226.504 317.797 228.464 317.797C230.205 317.797 231.697 318.149 232.933 318.844C234.169 319.539 235.149 320.512 235.881 321.742H235.976V307.187H240.635V340.483H235.976V337.248H235.881C235.149 338.485 234.169 339.451 232.933 340.146C231.697 340.841 230.205 341.192 228.464 341.192C226.497 341.192 224.712 340.717 223.095 339.765V339.773ZM234.367 334.658C235.603 333.34 236.225 331.621 236.225 329.499C236.225 327.376 235.61 325.657 234.367 324.339C233.131 323.022 231.5 322.364 229.473 322.364C227.447 322.364 225.809 323.022 224.573 324.339C223.337 325.657 222.715 327.376 222.715 329.499C222.715 331.621 223.329 333.34 224.573 334.658C225.809 335.975 227.44 336.633 229.473 336.633C231.507 336.633 233.131 335.975 234.367 334.658Z" fill="white"/>
<path d="M270.69 340.153C269.454 339.458 268.474 338.485 267.743 337.255H267.648V340.49H262.988V307.194H267.648V321.749H267.743C268.474 320.512 269.454 319.546 270.69 318.851C271.926 318.156 273.419 317.805 275.159 317.805C277.127 317.805 278.912 318.28 280.528 319.232C282.145 320.183 283.439 321.537 284.405 323.3C285.37 325.057 285.853 327.128 285.853 329.506C285.853 331.884 285.37 333.955 284.405 335.711C283.439 337.468 282.145 338.829 280.528 339.78C278.912 340.731 277.12 341.207 275.159 341.207C273.419 341.207 271.926 340.856 270.69 340.161V340.153ZM279.058 334.658C280.294 333.34 280.916 331.621 280.916 329.499C280.916 327.376 280.294 325.657 279.058 324.339C277.822 323.022 276.191 322.364 274.157 322.364C272.124 322.364 270.5 323.022 269.257 324.339C268.021 325.657 267.399 327.376 267.399 329.499C267.399 331.621 268.021 333.34 269.257 334.658C270.493 335.975 272.124 336.633 274.157 336.633C276.191 336.633 277.814 335.975 279.058 334.658Z" fill="white"/>
<path d="M311.292 318.515L297.599 350.003H292.655L297.928 338.492L288.705 318.515H294.264L300.298 332.931L306.15 318.515H311.284H311.292Z" fill="white"/>
</svg>
